<mxfile host="app.diagrams.net" modified="2023-06-11T03:59:43.620Z" agent="Mozilla/5.0 (Windows NT 10.0; Win64; x64) AppleWebKit/537.36 (KHTML, like Gecko) Chrome/114.0.0.0 Safari/537.36" etag="ESnXOezkm6NVZTTJ96Jn" version="21.3.8" type="device">
  <diagram name="Page-1" id="DXiHDEzHpJUt0mur4jMb">
    <mxGraphModel dx="1615" dy="952" grid="1" gridSize="10" guides="1" tooltips="1" connect="1" arrows="1" fold="1" page="1" pageScale="1" pageWidth="850" pageHeight="1100" math="0" shadow="0">
      <root>
        <mxCell id="0" />
        <mxCell id="1" parent="0" />
        <mxCell id="5yHLkQa92XdX6MOzH9Cy-2" value="&lt;h1&gt;Flow JWT Cookie dengan Fastify&lt;/h1&gt;" style="text;html=1;strokeColor=none;fillColor=none;spacing=5;spacingTop=-20;whiteSpace=wrap;overflow=hidden;rounded=0;align=center;" parent="1" vertex="1">
          <mxGeometry x="210" y="50" width="430" height="50" as="geometry" />
        </mxCell>
        <mxCell id="ntqpR53x8ZuP473kECy6-6" value="" style="edgeStyle=orthogonalEdgeStyle;rounded=0;orthogonalLoop=1;jettySize=auto;html=1;" edge="1" parent="1" source="5yHLkQa92XdX6MOzH9Cy-3" target="ntqpR53x8ZuP473kECy6-1">
          <mxGeometry relative="1" as="geometry" />
        </mxCell>
        <mxCell id="5yHLkQa92XdX6MOzH9Cy-3" value="START" style="rounded=1;whiteSpace=wrap;html=1;arcSize=50;" parent="1" vertex="1">
          <mxGeometry x="452" y="200" width="120" height="60" as="geometry" />
        </mxCell>
        <mxCell id="ntqpR53x8ZuP473kECy6-7" value="" style="edgeStyle=orthogonalEdgeStyle;rounded=0;orthogonalLoop=1;jettySize=auto;html=1;" edge="1" parent="1" source="ntqpR53x8ZuP473kECy6-1" target="ntqpR53x8ZuP473kECy6-2">
          <mxGeometry relative="1" as="geometry" />
        </mxCell>
        <mxCell id="ntqpR53x8ZuP473kECy6-1" value="input url&lt;br&gt;privateRoute" style="shape=parallelogram;perimeter=parallelogramPerimeter;whiteSpace=wrap;html=1;fixedSize=1;" vertex="1" parent="1">
          <mxGeometry x="452" y="280" width="120" height="60" as="geometry" />
        </mxCell>
        <mxCell id="ntqpR53x8ZuP473kECy6-8" value="" style="edgeStyle=orthogonalEdgeStyle;rounded=0;orthogonalLoop=1;jettySize=auto;html=1;" edge="1" parent="1" source="ntqpR53x8ZuP473kECy6-2" target="ntqpR53x8ZuP473kECy6-3">
          <mxGeometry relative="1" as="geometry" />
        </mxCell>
        <mxCell id="ntqpR53x8ZuP473kECy6-10" style="edgeStyle=orthogonalEdgeStyle;rounded=0;orthogonalLoop=1;jettySize=auto;html=1;exitX=1;exitY=0.5;exitDx=0;exitDy=0;entryX=0.5;entryY=0;entryDx=0;entryDy=0;" edge="1" parent="1" source="ntqpR53x8ZuP473kECy6-2" target="ntqpR53x8ZuP473kECy6-4">
          <mxGeometry relative="1" as="geometry" />
        </mxCell>
        <mxCell id="ntqpR53x8ZuP473kECy6-2" value="get cookie JWT exist?" style="rhombus;whiteSpace=wrap;html=1;" vertex="1" parent="1">
          <mxGeometry x="430" y="360" width="165" height="80" as="geometry" />
        </mxCell>
        <mxCell id="ntqpR53x8ZuP473kECy6-9" value="" style="edgeStyle=orthogonalEdgeStyle;rounded=0;orthogonalLoop=1;jettySize=auto;html=1;" edge="1" parent="1" source="ntqpR53x8ZuP473kECy6-3" target="ntqpR53x8ZuP473kECy6-5">
          <mxGeometry relative="1" as="geometry" />
        </mxCell>
        <mxCell id="ntqpR53x8ZuP473kECy6-3" value="output&lt;br&gt;send.reply content" style="shape=parallelogram;perimeter=parallelogramPerimeter;whiteSpace=wrap;html=1;fixedSize=1;" vertex="1" parent="1">
          <mxGeometry x="448" y="470" width="129" height="60" as="geometry" />
        </mxCell>
        <mxCell id="ntqpR53x8ZuP473kECy6-11" value="" style="edgeStyle=orthogonalEdgeStyle;rounded=0;orthogonalLoop=1;jettySize=auto;html=1;" edge="1" parent="1" source="ntqpR53x8ZuP473kECy6-4" target="ntqpR53x8ZuP473kECy6-5">
          <mxGeometry relative="1" as="geometry" />
        </mxCell>
        <mxCell id="ntqpR53x8ZuP473kECy6-4" value="output&lt;br&gt;error Unauthorized" style="shape=parallelogram;perimeter=parallelogramPerimeter;whiteSpace=wrap;html=1;fixedSize=1;" vertex="1" parent="1">
          <mxGeometry x="590" y="470" width="130" height="60" as="geometry" />
        </mxCell>
        <mxCell id="ntqpR53x8ZuP473kECy6-5" value="END" style="rounded=1;whiteSpace=wrap;html=1;arcSize=50;" vertex="1" parent="1">
          <mxGeometry x="520" y="570" width="120" height="60" as="geometry" />
        </mxCell>
        <mxCell id="ntqpR53x8ZuP473kECy6-12" value="N" style="text;html=1;strokeColor=none;fillColor=none;align=center;verticalAlign=middle;whiteSpace=wrap;rounded=0;" vertex="1" parent="1">
          <mxGeometry x="572" y="370" width="60" height="30" as="geometry" />
        </mxCell>
        <mxCell id="ntqpR53x8ZuP473kECy6-13" value="Y" style="text;html=1;strokeColor=none;fillColor=none;align=center;verticalAlign=middle;whiteSpace=wrap;rounded=0;" vertex="1" parent="1">
          <mxGeometry x="520" y="440" width="20" height="20" as="geometry" />
        </mxCell>
        <mxCell id="ntqpR53x8ZuP473kECy6-14" value="" style="edgeStyle=orthogonalEdgeStyle;rounded=0;orthogonalLoop=1;jettySize=auto;html=1;" edge="1" source="ntqpR53x8ZuP473kECy6-15" target="ntqpR53x8ZuP473kECy6-17" parent="1">
          <mxGeometry relative="1" as="geometry" />
        </mxCell>
        <mxCell id="ntqpR53x8ZuP473kECy6-15" value="START" style="rounded=1;whiteSpace=wrap;html=1;arcSize=50;" vertex="1" parent="1">
          <mxGeometry x="208" y="200" width="120" height="60" as="geometry" />
        </mxCell>
        <mxCell id="ntqpR53x8ZuP473kECy6-29" value="" style="edgeStyle=orthogonalEdgeStyle;rounded=0;orthogonalLoop=1;jettySize=auto;html=1;" edge="1" parent="1" source="ntqpR53x8ZuP473kECy6-17" target="ntqpR53x8ZuP473kECy6-28">
          <mxGeometry relative="1" as="geometry" />
        </mxCell>
        <mxCell id="ntqpR53x8ZuP473kECy6-17" value="input url&lt;br&gt;get JWT Token" style="shape=parallelogram;perimeter=parallelogramPerimeter;whiteSpace=wrap;html=1;fixedSize=1;" vertex="1" parent="1">
          <mxGeometry x="208" y="280" width="120" height="60" as="geometry" />
        </mxCell>
        <mxCell id="ntqpR53x8ZuP473kECy6-31" value="" style="edgeStyle=orthogonalEdgeStyle;rounded=0;orthogonalLoop=1;jettySize=auto;html=1;" edge="1" parent="1" source="ntqpR53x8ZuP473kECy6-28" target="ntqpR53x8ZuP473kECy6-30">
          <mxGeometry relative="1" as="geometry" />
        </mxCell>
        <mxCell id="ntqpR53x8ZuP473kECy6-28" value="token: generatedToken&lt;br&gt;expiredIn: 60 seconds" style="rounded=0;whiteSpace=wrap;html=1;" vertex="1" parent="1">
          <mxGeometry x="200" y="360" width="136" height="60" as="geometry" />
        </mxCell>
        <mxCell id="ntqpR53x8ZuP473kECy6-30" value="END" style="rounded=1;whiteSpace=wrap;html=1;arcSize=50;" vertex="1" parent="1">
          <mxGeometry x="208" y="440" width="120" height="60" as="geometry" />
        </mxCell>
        <mxCell id="ntqpR53x8ZuP473kECy6-32" value="&lt;b&gt;privateRoute :&lt;br&gt;&lt;/b&gt;&amp;nbsp; 1. GET&lt;span style=&quot;white-space: pre;&quot;&gt;&#x9;&lt;span style=&quot;white-space: pre;&quot;&gt;&#x9;&lt;/span&gt;&lt;/span&gt;/posts/:id&lt;br&gt;&amp;nbsp; 2. POST&lt;span style=&quot;white-space: pre;&quot;&gt;&#x9;&lt;/span&gt;/posts/new&lt;br&gt;&amp;nbsp; 3. PUT&lt;span style=&quot;white-space: pre;&quot;&gt;&#x9;&lt;/span&gt;&lt;span style=&quot;white-space: pre;&quot;&gt;&#x9;&lt;/span&gt;/posts/:id&lt;br&gt;&lt;br&gt;&lt;b&gt;getJWTToken Route:&lt;br&gt;&lt;/b&gt;&amp;nbsp; 1. GET&lt;span style=&quot;white-space: pre;&quot;&gt;&#x9;&lt;/span&gt;&lt;span style=&quot;white-space: pre;&quot;&gt;&#x9;&lt;/span&gt;/jwtToken" style="text;html=1;strokeColor=none;fillColor=none;align=left;verticalAlign=top;whiteSpace=wrap;rounded=0;" vertex="1" parent="1">
          <mxGeometry x="240" y="545" width="160" height="110" as="geometry" />
        </mxCell>
        <mxCell id="ntqpR53x8ZuP473kECy6-35" value="&lt;h1&gt;&lt;font style=&quot;font-size: 16px;&quot;&gt;Get JWT Token&lt;/font&gt;&lt;/h1&gt;" style="text;html=1;strokeColor=none;fillColor=none;spacing=5;spacingTop=-20;whiteSpace=wrap;overflow=hidden;rounded=0;align=center;verticalAlign=middle;" vertex="1" parent="1">
          <mxGeometry x="173" y="130" width="190" height="40" as="geometry" />
        </mxCell>
        <mxCell id="ntqpR53x8ZuP473kECy6-36" value="&lt;h1&gt;&lt;span style=&quot;font-size: 16px;&quot;&gt;Access Private Route (need Authentication)&lt;/span&gt;&lt;/h1&gt;" style="text;html=1;strokeColor=none;fillColor=none;spacing=5;spacingTop=-20;whiteSpace=wrap;overflow=hidden;rounded=0;align=center;verticalAlign=middle;" vertex="1" parent="1">
          <mxGeometry x="407.5" y="110" width="210" height="70" as="geometry" />
        </mxCell>
      </root>
    </mxGraphModel>
  </diagram>
</mxfile>
